<?xml version="1.0" encoding="utf-8"?>
<!-- Generator: Adobe Illustrator 17.0.2, SVG Export Plug-In . SVG Version: 6.00 Build 0)  -->
<!DOCTYPE svg PUBLIC "-//W3C//DTD SVG 1.1//EN" "http://www.w3.org/Graphics/SVG/1.1/DTD/svg11.dtd">
<svg version="1.1" id="Layer_1" xmlns="http://www.w3.org/2000/svg" xmlns:xlink="http://www.w3.org/1999/xlink" x="0px" y="0px"
	 width="155.33px" height="83px" viewBox="0 0 155.33 83" style="enable-background:new 0 0 155.33 83;" xml:space="preserve">
<style type="text/css">
	.st0{fill:#F7941E;}
</style>
<g>
	<path class="st0" d="M33.23,41.5c0,3.36-2.79,5.91-8.36,7.66c-3.64,1.12-7.67,1.75-12.09,1.89l-0.59-5.54
		c0.69,0.04,1.25,0.06,1.7,0.06c0.76,0,2.41-0.1,4.98-0.31c2.2-0.18,3.84-0.45,4.93-0.8c2.2-0.64,3.3-1.73,3.3-3.25
		c0-0.52-0.18-1.02-0.52-1.51c-0.53-0.77-2-1.21-4.41-1.32c-3.49-0.17-5.68-0.36-6.57-0.57c-2.44-0.6-4.06-1.87-4.87-3.8
		c-0.41-1.01-0.61-2.06-0.61-3.15c0-3.35,2.65-5.9,7.96-7.66c3.23-1.11,7.17-1.83,11.82-2.16l-0.25,6.42
		c-2.79,0.03-5.36,0.22-7.73,0.57c-4.02,0.66-6.03,1.71-6.03,3.15c0,0.55,0.19,1.1,0.57,1.66c0.6,0.92,2.13,1.47,4.6,1.64
		c4,0.24,6.22,0.41,6.66,0.5c2.49,0.52,4.13,1.69,4.91,3.51C33.02,39.44,33.23,40.45,33.23,41.5z"/>
	<path class="st0" d="M54.66,30.31c0,2.72-1.97,5.13-5.92,7.24c-2.49,1.34-5.57,2.48-9.24,3.4l0.65,9.43l-5.56-0.1l-1.53-28.09
		c0.63-0.06,1.26-0.09,1.9-0.12c0.64-0.02,1.29-0.03,1.96-0.03c4.19,0,7.73,0.43,10.65,1.28C52.3,24.7,54.66,27.03,54.66,30.31z
		 M48.43,30.39c0-2.67-2.55-4.01-7.64-4.01c-0.55,0-1.08,0.02-1.62,0.05c-0.53,0.04-1.06,0.09-1.6,0.16l0.52,8.63
		C44.98,34.72,48.43,33.11,48.43,30.39z"/>
	<path class="st0" d="M79.86,35.87c0,4.02-1.2,7.42-3.59,10.2c-2.41,2.87-5.41,4.3-9.01,4.3c-3.58,0-6.6-1.35-9.05-4.05
		c-2.44-2.7-3.65-6.05-3.65-10.06c0-4.03,1.2-7.46,3.61-10.29c2.42-2.84,5.42-4.26,8.99-4.26c3.58,0,6.59,1.36,9.03,4.09
		C78.63,28.52,79.86,31.87,79.86,35.87z M74.11,35.51c0-2.3-0.63-4.23-1.89-5.82c-1.29-1.62-2.96-2.44-5.02-2.44
		c-2.07,0-3.8,0.93-5.19,2.79c-1.3,1.72-1.95,3.77-1.95,6.13c0,2.34,0.64,4.3,1.93,5.88c1.3,1.58,2.99,2.37,5.06,2.37
		c2.11,0,3.84-0.92,5.17-2.77C73.48,39.94,74.11,37.89,74.11,35.51z"/>
	<path class="st0" d="M106.02,35.87c0,4.02-1.2,7.42-3.59,10.2c-2.41,2.87-5.41,4.3-9.01,4.3c-3.58,0-6.6-1.35-9.05-4.05
		c-2.44-2.7-3.65-6.05-3.65-10.06c0-4.03,1.2-7.46,3.61-10.29c2.42-2.84,5.42-4.26,8.99-4.26c3.58,0,6.59,1.36,9.03,4.09
		C104.79,28.52,106.02,31.87,106.02,35.87z M100.27,35.51c0-2.3-0.63-4.23-1.89-5.82c-1.29-1.62-2.96-2.44-5.02-2.44
		c-2.07,0-3.8,0.93-5.19,2.79c-1.3,1.72-1.95,3.77-1.95,6.13c0,2.34,0.64,4.3,1.93,5.88c1.3,1.58,2.99,2.37,5.06,2.37
		c2.11,0,3.83-0.92,5.17-2.77C99.64,39.94,100.27,37.89,100.27,35.51z"/>
	<path class="st0" d="M129.16,45.47l-5.19,3.8l-10.69-10.55l1.01,11.67l-4.91,0.55l-2.69-28.22l5.02-0.84l1.11,11.85l7.45-12.84
		l5.88,0.61l-8.46,14.35L129.16,45.47z"/>
	<path class="st0" d="M148.58,20.88l-5.52,16.31l0.21,12.53l-5.04,0.65l-0.15-11.78l-9.13-14.99l5.54-1.64l5.31,10.96l3.15-11.55
		L148.58,20.88z"/>
</g>
<g>
	<path class="st0" d="M20.03,7.01l-0.15,2.53L16.4,9.37l-0.52,10.09l-2.6-0.02l0.59-10.22L10.7,8.9l0.05-2.53L20.03,7.01z"/>
	<path class="st0" d="M29.32,18.89l-2.82,0.38l-0.55-5.56l-2.87,0.26l0.37,5.48l-2.26,0.32L20.22,6.93l2.74-0.13l0.39,4.86
		l2.82-0.23L25.71,6.5l2.63-0.36L29.32,18.89z"/>
	<path class="st0" d="M38.74,18.78l-8.1,0.93l-1-12.68l8.26-0.95l0.21,2.68l-5.64,0.66l0.29,2.7l3.54-0.38l0.2,2.31l-4.19,0.41
		l0.21,2.53l6.06-0.71L38.74,18.78z"/>
</g>
<g>
	<path class="st0" d="M25.89,67.08c0,1.99-2.12,3.59-6.35,4.81c-1.34,0.39-2.73,0.71-4.17,0.97c-1.44,0.26-2.95,0.45-4.52,0.57
		L9.64,53.64c1.42-0.12,2.82-0.17,4.19-0.17c6.69,0,10.04,1.19,10.04,3.57c0,1.22-0.82,2.44-2.47,3.65
		c-1.2,0.88-2.52,1.57-3.97,2.08c1.74,0.04,3.43,0.35,5.06,0.94C24.76,64.51,25.89,65.63,25.89,67.08z M18.28,58.45
		c0-1.36-1.08-2.03-3.23-2.03c-0.5,0-1.2,0.06-2.08,0.17l0.22,4.46C16.58,60.8,18.28,59.93,18.28,58.45z M20.43,67.14
		c0-1.53-1.26-2.3-3.79-2.3c-0.41,0-0.83,0.02-1.27,0.05c-0.44,0.03-0.91,0.08-1.4,0.15l0.28,4.91
		C18.36,69.92,20.43,68.98,20.43,67.14z"/>
	<path class="st0" d="M43.43,63.39c0,2.78-0.83,5.13-2.48,7.06c-1.67,1.99-3.74,2.98-6.23,2.98c-2.48,0-4.57-0.93-6.26-2.8
		c-1.69-1.87-2.53-4.19-2.53-6.96c0-2.79,0.83-5.16,2.5-7.12c1.68-1.97,3.75-2.95,6.22-2.95c2.48,0,4.56,0.94,6.25,2.83
		C42.58,58.3,43.43,60.62,43.43,63.39z M39.45,63.14c0-1.59-0.44-2.93-1.31-4.03c-0.89-1.12-2.05-1.69-3.47-1.69
		c-1.43,0-2.63,0.64-3.59,1.93c-0.9,1.19-1.35,2.61-1.35,4.24c0,1.62,0.45,2.97,1.34,4.07c0.9,1.1,2.07,1.64,3.5,1.64
		c1.46,0,2.65-0.64,3.57-1.92C39.01,66.21,39.45,64.79,39.45,63.14z"/>
	<path class="st0" d="M61.54,63.39c0,2.78-0.83,5.13-2.48,7.06c-1.67,1.99-3.74,2.98-6.23,2.98c-2.48,0-4.57-0.93-6.26-2.8
		c-1.69-1.87-2.53-4.19-2.53-6.96c0-2.79,0.83-5.16,2.5-7.12c1.68-1.97,3.75-2.95,6.22-2.95c2.48,0,4.56,0.94,6.25,2.83
		C60.69,58.3,61.54,60.62,61.54,63.39z M57.56,63.14c0-1.59-0.44-2.93-1.31-4.03c-0.89-1.12-2.05-1.69-3.47-1.69
		c-1.43,0-2.63,0.64-3.59,1.93c-0.9,1.19-1.35,2.61-1.35,4.24c0,1.62,0.45,2.97,1.34,4.07c0.9,1.1,2.07,1.64,3.5,1.64
		c1.46,0,2.65-0.64,3.57-1.92C57.12,66.21,57.56,64.79,57.56,63.14z"/>
	<path class="st0" d="M77.55,70.03l-3.59,2.63l-7.4-7.3l0.7,8.07l-3.4,0.38L62,54.27l3.47-0.58l0.77,8.21l5.16-8.89l4.07,0.42
		l-5.86,9.93L77.55,70.03z"/>
</g>
<g>
	<path class="st0" d="M103.46,72.8c-3.36,0-6.22-0.37-8.57-1.1c-3.51-1.12-5.61-2.97-6.31-5.54c-0.06-0.21-0.09-0.53-0.09-0.94
		c0-2.16,1.3-4.48,3.91-6.95c1.91-1.82,4.09-3.38,6.55-4.68l0.95,4.36c-1.62,0.69-3.05,1.54-4.3,2.56c-1.7,1.4-2.54,2.8-2.54,4.17
		c0,1.75,1.26,2.98,3.79,3.69c1.73,0.49,3.63,0.69,5.7,0.6L103.46,72.8z"/>
	<path class="st0" d="M114.68,72.16l-10.65,1.26l-1.92-19.75l3.65-0.22l1.37,15.87l7.27-0.89L114.68,72.16z"/>
	<path class="st0" d="M131.04,59.86c0,6.81-1.46,11.07-4.39,12.77c-0.94,0.53-1.94,0.8-2.99,0.8c-2.92,0-5.2-2.44-6.84-7.31
		c-1.17-3.46-1.85-7.3-2.04-11.54l4.46-0.38c-0.03,0.67-0.04,1.37-0.04,2.11c0,2.92,0.24,5.45,0.71,7.61
		c0.78,3.48,2.03,5.22,3.76,5.22c2.45,0,3.68-2.48,3.68-7.43c0-1.36-0.07-2.71-0.2-4.08c-0.14-1.36-0.34-2.74-0.61-4.15l3.97-0.74
		c0.18,1.14,0.32,2.3,0.41,3.48C131,57.41,131.04,58.62,131.04,59.86z"/>
	<path class="st0" d="M148.04,67.08c0,1.99-2.12,3.59-6.35,4.81c-1.34,0.39-2.73,0.71-4.17,0.97c-1.44,0.26-2.95,0.45-4.52,0.57
		l-1.21-19.79c1.42-0.12,2.82-0.17,4.19-0.17c6.69,0,10.04,1.19,10.04,3.57c0,1.22-0.82,2.44-2.47,3.65
		c-1.2,0.88-2.52,1.57-3.97,2.08c1.74,0.04,3.43,0.35,5.06,0.94C146.91,64.51,148.04,65.63,148.04,67.08z M140.43,58.45
		c0-1.36-1.08-2.03-3.23-2.03c-0.5,0-1.2,0.06-2.08,0.17l0.22,4.46C138.73,60.8,140.43,59.93,140.43,58.45z M142.58,67.14
		c0-1.53-1.26-2.3-3.79-2.3c-0.41,0-0.83,0.02-1.27,0.05c-0.44,0.03-0.91,0.08-1.4,0.15l0.28,4.91
		C140.51,69.92,142.58,68.98,142.58,67.14z"/>
</g>
<g>
</g>
<g>
</g>
<g>
</g>
<g>
</g>
<g>
</g>
<g>
</g>
</svg>
